name rise30.8019peak61.5557fall86.2505.mot
datacolumns 19
datarows 36
range 24.00157500000000 24.05990800000000
endheader
time	ground_force1_vx	ground_force1_vy	ground_force1_vz	ground_force1_px	ground_force1_py	ground_force1_pz	ground_force2_vx	ground_force2_vy	ground_force2_vz	ground_force2_px	ground_force2_py	ground_force2_pz	ground_torque1_x	ground_torque1_y	ground_torque1_z	ground_torque2_x	ground_torque2_y	ground_torque2_z	
24.00157500000000	-11.71844000000000	686.59541200000001	31.82255100000000	0.11940000000000	0.00000000000000	0.10076200000000	0.00000000000000	0.00000000000000	0.00000000000000	0.00000000000000	0.00000000000000	0.00000000000000	0.00000000000000	11.33122600000000	0.00000000000000	0.00000000000000	0.00000000000000	0.00000000000000	
24.00324100000000	-12.15162400000000	687.00542800000005	31.79213900000000	0.11849800000000	0.00000000000000	0.10076900000000	0.00000000000000	0.00000000000000	0.00000000000000	0.00000000000000	0.00000000000000	0.00000000000000	0.00000000000000	11.36998100000000	0.00000000000000	0.00000000000000	0.00000000000000	0.00000000000000	
24.00491000000000	-12.58499000000000	687.42841099999998	31.76334900000000	0.11759700000000	0.00000000000000	0.10077700000000	0.00000000000000	0.00000000000000	0.00000000000000	0.00000000000000	0.00000000000000	0.00000000000000	0.00000000000000	11.40958900000000	0.00000000000000	0.00000000000000	0.00000000000000	0.00000000000000	
24.00657400000000	-13.01862400000000	687.86479699999995	31.73634000000000	0.11669600000000	0.00000000000000	0.10078600000000	0.00000000000000	0.00000000000000	0.00000000000000	0.00000000000000	0.00000000000000	0.00000000000000	0.00000000000000	11.45009100000000	0.00000000000000	0.00000000000000	0.00000000000000	0.00000000000000	
24.00824300000000	-13.45261800000000	688.31508599999995	31.71127400000000	0.11579600000000	0.00000000000000	0.10079500000000	0.00000000000000	0.00000000000000	0.00000000000000	0.00000000000000	0.00000000000000	0.00000000000000	0.00000000000000	11.49153100000000	0.00000000000000	0.00000000000000	0.00000000000000	0.00000000000000	
24.00991200000000	-13.88707700000000	688.77984300000003	31.68831500000000	0.11489500000000	0.00000000000000	0.10080400000000	0.00000000000000	0.00000000000000	0.00000000000000	0.00000000000000	0.00000000000000	0.00000000000000	0.00000000000000	11.53395900000000	0.00000000000000	0.00000000000000	0.00000000000000	0.00000000000000	
24.01158200000000	-14.32211500000000	689.25969399999997	31.66762700000000	0.11399400000000	0.00000000000000	0.10081400000000	0.00000000000000	0.00000000000000	0.00000000000000	0.00000000000000	0.00000000000000	0.00000000000000	0.00000000000000	11.57742300000000	0.00000000000000	0.00000000000000	0.00000000000000	0.00000000000000	
24.01324600000000	-14.75785200000000	689.75531799999999	31.64937400000000	0.11309100000000	0.00000000000000	0.10082400000000	0.00000000000000	0.00000000000000	0.00000000000000	0.00000000000000	0.00000000000000	0.00000000000000	0.00000000000000	11.62197600000000	0.00000000000000	0.00000000000000	0.00000000000000	0.00000000000000	
24.01491200000000	-15.19442000000000	690.26744799999994	31.63372100000000	0.11218600000000	0.00000000000000	0.10083500000000	0.00000000000000	0.00000000000000	0.00000000000000	0.00000000000000	0.00000000000000	0.00000000000000	0.00000000000000	11.66767000000000	0.00000000000000	0.00000000000000	0.00000000000000	0.00000000000000	
24.01657400000000	-15.63195500000000	690.79686700000002	31.62082900000000	0.11127800000000	0.00000000000000	0.10084600000000	0.00000000000000	0.00000000000000	0.00000000000000	0.00000000000000	0.00000000000000	0.00000000000000	0.00000000000000	11.71456100000000	0.00000000000000	0.00000000000000	0.00000000000000	0.00000000000000	
24.01824800000000	-16.07060200000000	691.34439899999995	31.61085700000000	0.11036800000000	0.00000000000000	0.10085800000000	0.00000000000000	0.00000000000000	0.00000000000000	0.00000000000000	0.00000000000000	0.00000000000000	0.00000000000000	11.76270300000000	0.00000000000000	0.00000000000000	0.00000000000000	0.00000000000000	
24.01990700000000	-16.51050900000000	691.91090799999995	31.60396000000000	0.10945400000000	0.00000000000000	0.10087100000000	0.00000000000000	0.00000000000000	0.00000000000000	0.00000000000000	0.00000000000000	0.00000000000000	0.00000000000000	11.81215200000000	0.00000000000000	0.00000000000000	0.00000000000000	0.00000000000000	
24.02157500000000	-16.95183000000000	692.49729000000002	31.60029000000000	0.10853600000000	0.00000000000000	0.10088400000000	0.00000000000000	0.00000000000000	0.00000000000000	0.00000000000000	0.00000000000000	0.00000000000000	0.00000000000000	11.86296300000000	0.00000000000000	0.00000000000000	0.00000000000000	0.00000000000000	
24.02324100000000	-17.39472300000000	693.10447299999998	31.59999300000000	0.10761400000000	0.00000000000000	0.10089900000000	0.00000000000000	0.00000000000000	0.00000000000000	0.00000000000000	0.00000000000000	0.00000000000000	0.00000000000000	11.91518900000000	0.00000000000000	0.00000000000000	0.00000000000000	0.00000000000000	
24.02490900000000	-17.83934700000000	693.73340499999995	31.60320900000000	0.10668700000000	0.00000000000000	0.10091400000000	0.00000000000000	0.00000000000000	0.00000000000000	0.00000000000000	0.00000000000000	0.00000000000000	0.00000000000000	11.96888500000000	0.00000000000000	0.00000000000000	0.00000000000000	0.00000000000000	
24.02657500000000	-18.28586200000000	694.38505199999997	31.61007400000000	0.10575500000000	0.00000000000000	0.10092900000000	0.00000000000000	0.00000000000000	0.00000000000000	0.00000000000000	0.00000000000000	0.00000000000000	0.00000000000000	12.02410100000000	0.00000000000000	0.00000000000000	0.00000000000000	0.00000000000000	
24.02824200000000	-18.73443000000000	695.06039299999998	31.62071600000000	0.10481700000000	0.00000000000000	0.10094600000000	0.00000000000000	0.00000000000000	0.00000000000000	0.00000000000000	0.00000000000000	0.00000000000000	0.00000000000000	12.08088800000000	0.00000000000000	0.00000000000000	0.00000000000000	0.00000000000000	
24.02990700000000	-19.18520800000000	695.76041199999997	31.63525900000000	0.10387400000000	0.00000000000000	0.10096300000000	0.00000000000000	0.00000000000000	0.00000000000000	0.00000000000000	0.00000000000000	0.00000000000000	0.00000000000000	12.13929200000000	0.00000000000000	0.00000000000000	0.00000000000000	0.00000000000000	
24.03157700000000	-19.63835500000000	696.48609299999998	31.65381700000000	0.10292500000000	0.00000000000000	0.10098100000000	0.00000000000000	0.00000000000000	0.00000000000000	0.00000000000000	0.00000000000000	0.00000000000000	0.00000000000000	12.19935800000000	0.00000000000000	0.00000000000000	0.00000000000000	0.00000000000000	
24.03324000000000	-20.09402100000000	697.23841200000004	31.67650000000000	0.10197000000000	0.00000000000000	0.10100000000000	0.00000000000000	0.00000000000000	0.00000000000000	0.00000000000000	0.00000000000000	0.00000000000000	0.00000000000000	12.26112700000000	0.00000000000000	0.00000000000000	0.00000000000000	0.00000000000000	
24.03491400000000	-20.55235300000000	698.01833599999998	31.70340900000000	0.10100900000000	0.00000000000000	0.10101900000000	0.00000000000000	0.00000000000000	0.00000000000000	0.00000000000000	0.00000000000000	0.00000000000000	0.00000000000000	12.32463500000000	0.00000000000000	0.00000000000000	0.00000000000000	0.00000000000000	
24.03657900000000	-21.01349300000000	698.82681200000002	31.73463900000000	0.10004200000000	0.00000000000000	0.10104000000000	0.00000000000000	0.00000000000000	0.00000000000000	0.00000000000000	0.00000000000000	0.00000000000000	0.00000000000000	12.38991500000000	0.00000000000000	0.00000000000000	0.00000000000000	0.00000000000000	
24.03824200000000	-21.47757200000000	699.66476000000000	31.77027800000000	0.09906800000000	0.00000000000000	0.10106100000000	0.00000000000000	0.00000000000000	0.00000000000000	0.00000000000000	0.00000000000000	0.00000000000000	0.00000000000000	12.45699600000000	0.00000000000000	0.00000000000000	0.00000000000000	0.00000000000000	
24.03991200000000	-21.94471400000000	700.53307299999994	31.81040700000000	0.09808900000000	0.00000000000000	0.10108300000000	0.00000000000000	0.00000000000000	0.00000000000000	0.00000000000000	0.00000000000000	0.00000000000000	0.00000000000000	12.52590200000000	0.00000000000000	0.00000000000000	0.00000000000000	0.00000000000000	
24.04158100000000	-22.41502900000000	701.43260299999997	31.85510100000000	0.09710400000000	0.00000000000000	0.10110600000000	0.00000000000000	0.00000000000000	0.00000000000000	0.00000000000000	0.00000000000000	0.00000000000000	0.00000000000000	12.59664900000000	0.00000000000000	0.00000000000000	0.00000000000000	0.00000000000000	
24.04324400000000	-22.88861900000000	702.36416199999996	31.90442800000000	0.09611300000000	0.00000000000000	0.10112900000000	0.00000000000000	0.00000000000000	0.00000000000000	0.00000000000000	0.00000000000000	0.00000000000000	0.00000000000000	12.66925200000000	0.00000000000000	0.00000000000000	0.00000000000000	0.00000000000000	
24.04490700000000	-23.36557000000000	703.32850900000005	31.95844900000000	0.09511600000000	0.00000000000000	0.10115300000000	0.00000000000000	0.00000000000000	0.00000000000000	0.00000000000000	0.00000000000000	0.00000000000000	0.00000000000000	12.74371500000000	0.00000000000000	0.00000000000000	0.00000000000000	0.00000000000000	
24.04657500000000	-23.84595500000000	704.32635100000005	32.01722000000000	0.09411500000000	0.00000000000000	0.10117800000000	0.00000000000000	0.00000000000000	0.00000000000000	0.00000000000000	0.00000000000000	0.00000000000000	0.00000000000000	12.82004000000000	0.00000000000000	0.00000000000000	0.00000000000000	0.00000000000000	
24.04824100000000	-24.32983000000000	705.35833100000002	32.08079000000000	0.09310800000000	0.00000000000000	0.10120400000000	0.00000000000000	0.00000000000000	0.00000000000000	0.00000000000000	0.00000000000000	0.00000000000000	0.00000000000000	12.89822100000000	0.00000000000000	0.00000000000000	0.00000000000000	0.00000000000000	
24.04991500000000	-24.81723400000000	706.42502800000000	32.14920500000000	0.09209800000000	0.00000000000000	0.10123100000000	0.00000000000000	0.00000000000000	0.00000000000000	0.00000000000000	0.00000000000000	0.00000000000000	0.00000000000000	12.97824400000000	0.00000000000000	0.00000000000000	0.00000000000000	0.00000000000000	
24.05157600000000	-25.30819000000000	707.52694499999996	32.22250300000000	0.09108300000000	0.00000000000000	0.10125800000000	0.00000000000000	0.00000000000000	0.00000000000000	0.00000000000000	0.00000000000000	0.00000000000000	0.00000000000000	13.06008900000000	0.00000000000000	0.00000000000000	0.00000000000000	0.00000000000000	
24.05324300000000	-25.80269900000000	708.66450999999995	32.30071800000000	0.09006500000000	0.00000000000000	0.10128500000000	0.00000000000000	0.00000000000000	0.00000000000000	0.00000000000000	0.00000000000000	0.00000000000000	0.00000000000000	13.14373000000000	0.00000000000000	0.00000000000000	0.00000000000000	0.00000000000000	
24.05491100000000	-26.30074500000000	709.83806500000003	32.38388100000000	0.08904400000000	0.00000000000000	0.10131300000000	0.00000000000000	0.00000000000000	0.00000000000000	0.00000000000000	0.00000000000000	0.00000000000000	0.00000000000000	13.22913100000000	0.00000000000000	0.00000000000000	0.00000000000000	0.00000000000000	
24.05657700000000	-26.80228700000000	711.04786500000000	32.47201700000000	0.08802100000000	0.00000000000000	0.10134200000000	0.00000000000000	0.00000000000000	0.00000000000000	0.00000000000000	0.00000000000000	0.00000000000000	0.00000000000000	13.31625000000000	0.00000000000000	0.00000000000000	0.00000000000000	0.00000000000000	
24.05825000000000	-27.30726500000000	712.29407300000003	32.56514600000000	0.08699700000000	0.00000000000000	0.10137100000000	0.00000000000000	0.00000000000000	0.00000000000000	0.00000000000000	0.00000000000000	0.00000000000000	0.00000000000000	13.40503700000000	0.00000000000000	0.00000000000000	0.00000000000000	0.00000000000000	
24.05990800000000	-27.81559500000000	713.57675300000005	32.66328800000000	0.08597100000000	0.00000000000000	0.10140100000000	0.00000000000000	0.00000000000000	0.00000000000000	0.00000000000000	0.00000000000000	0.00000000000000	0.00000000000000	13.49543500000000	0.00000000000000	0.00000000000000	0.00000000000000	0.00000000000000	
